<svg width="42" height="43" viewBox="0 0 42 43" fill="none" xmlns="http://www.w3.org/2000/svg">
<g id="Cloud and Web / approved cloud">
<path id="Vector" d="M25.0075 25.0834L19.25 30.8409L16.9925 28.5834C16.8298 28.4193 16.6362 28.2891 16.423 28.2003C16.2097 28.1115 15.981 28.0657 15.75 28.0657C15.5189 28.0657 15.2902 28.1115 15.0769 28.2003C14.8637 28.2891 14.6701 28.4193 14.5075 28.5834C14.1815 28.9112 13.9986 29.3548 13.9986 29.8171C13.9986 30.2794 14.1815 30.723 14.5075 31.0509L18.0075 34.5509C18.1701 34.7149 18.3637 34.8451 18.5769 34.9339C18.7902 35.0228 19.0189 35.0685 19.25 35.0685C19.481 35.0685 19.7097 35.0228 19.923 34.9339C20.1362 34.8451 20.3298 34.7149 20.4925 34.5509L27.4925 27.5509C27.8184 27.223 28.0013 26.7794 28.0013 26.3171C28.0013 25.8548 27.8184 25.4112 27.4925 25.0834C27.3298 24.9193 27.1362 24.7891 26.923 24.7003C26.7097 24.6115 26.481 24.5657 26.25 24.5657C26.0189 24.5657 25.7902 24.6115 25.5769 24.7003C25.3637 24.7891 25.1701 24.9193 25.0075 25.0834ZM32.235 14.8109C31.1645 12.3535 29.3176 10.3151 26.9775 9.00813C24.6374 7.70116 21.9332 7.19778 19.2795 7.57517C16.6258 7.95257 14.1692 9.1899 12.2862 11.0975C10.4032 13.005 9.19789 15.4775 8.85496 18.1359C7.39545 18.498 6.09135 19.3205 5.13575 20.4816C4.18016 21.6427 3.62388 23.0807 3.54927 24.5826C3.47467 26.0845 3.88571 27.5705 4.72153 28.8206C5.55735 30.0707 6.77352 31.0184 8.18996 31.5234C8.41349 31.6407 8.65975 31.7082 8.91184 31.7214C9.16394 31.7345 9.41589 31.693 9.65043 31.5996C9.88496 31.5062 10.0965 31.3632 10.2706 31.1804C10.4446 30.9976 10.5771 30.7792 10.6588 30.5404C10.7406 30.3016 10.7697 30.0479 10.7441 29.7967C10.7186 29.5456 10.639 29.3029 10.5109 29.0854C10.3828 28.868 10.2091 28.6807 10.0018 28.5367C9.79449 28.3926 9.55848 28.2951 9.30996 28.2509C8.62787 28.0043 8.03922 27.5519 7.6254 26.9563C7.21158 26.3606 6.99303 25.6511 6.99996 24.9259C6.99996 23.9976 7.36871 23.1074 8.02508 22.451C8.68146 21.7946 9.5717 21.4259 10.5 21.4259C10.9641 21.4259 11.4092 21.2415 11.7374 20.9133C12.0656 20.5851 12.25 20.14 12.25 19.6759C12.2585 17.6076 12.9995 15.6092 14.3413 14.0353C15.6832 12.4614 17.5392 11.4137 19.5801 11.0781C21.621 10.7424 23.7148 11.1406 25.49 12.202C27.2652 13.2634 28.607 14.9192 29.2775 16.8759C29.3801 17.1733 29.5611 17.4376 29.8013 17.6409C30.0415 17.8441 30.3321 17.9788 30.6425 18.0309C31.8081 18.2511 32.8647 18.8597 33.6403 19.7573C34.4158 20.6549 34.8644 21.7887 34.9132 22.974C34.9619 24.1592 34.6077 25.326 33.9085 26.2843C33.2092 27.2425 32.2061 27.9357 31.0625 28.2509C30.5983 28.3089 30.1763 28.5489 29.8891 28.9181C29.6019 29.2873 29.4732 29.7555 29.5312 30.2196C29.5892 30.6837 29.8292 31.1058 30.1984 31.393C30.5677 31.6801 31.0358 31.8089 31.5 31.7509H31.9375C33.7791 31.2642 35.4117 30.1898 36.5872 28.6909C37.7627 27.192 38.417 25.3504 38.4507 23.4458C38.4843 21.5412 37.8955 19.6777 36.7737 18.1382C35.6519 16.5987 34.0583 15.4673 32.235 14.9159V14.8109Z" fill="#F8B517"/>
</g>
</svg>
