<svg width="42" height="43" viewBox="0 0 42 43" fill="none" xmlns="http://www.w3.org/2000/svg">
<g id="Multimedia / rss interface">
<path id="Vector" d="M5.25 24.75C4.78587 24.75 4.34075 24.9344 4.01256 25.2626C3.68438 25.5908 3.5 26.0359 3.5 26.5C3.5 26.9641 3.68438 27.4092 4.01256 27.7374C4.34075 28.0656 4.78587 28.25 5.25 28.25C6.64239 28.25 7.97775 28.8031 8.96231 29.7877C9.94688 30.7723 10.5 32.1076 10.5 33.5C10.5 33.9641 10.6844 34.4093 11.0126 34.7374C11.3408 35.0656 11.7859 35.25 12.25 35.25C12.7141 35.25 13.1592 35.0656 13.4874 34.7374C13.8156 34.4093 14 33.9641 14 33.5C14 31.1794 13.0781 28.9538 11.4372 27.3128C9.79624 25.6719 7.57064 24.75 5.25 24.75ZM4.0075 32.2575C3.76419 32.5028 3.59895 32.8147 3.53258 33.1537C3.46622 33.4928 3.50171 33.8439 3.63459 34.1629C3.76746 34.4818 3.99177 34.7543 4.27924 34.9459C4.56672 35.1376 4.90449 35.2399 5.25 35.2399C5.59551 35.2399 5.93328 35.1376 6.22076 34.9459C6.50823 34.7543 6.73254 34.4818 6.86541 34.1629C6.99829 33.8439 7.03378 33.4928 6.96742 33.1537C6.90105 32.8147 6.73581 32.5028 6.4925 32.2575C6.32982 32.0935 6.13626 31.9633 5.92301 31.8744C5.70976 31.7856 5.48102 31.7399 5.25 31.7399C5.01898 31.7399 4.79025 31.7856 4.57699 31.8744C4.36374 31.9633 4.17019 32.0935 4.0075 32.2575ZM33.25 7.25H8.75C7.35761 7.25 6.02226 7.80312 5.03769 8.78769C4.05312 9.77226 3.5 11.1076 3.5 12.5C3.5 12.9641 3.68438 13.4092 4.01256 13.7374C4.34075 14.0656 4.78587 14.25 5.25 14.25C5.71413 14.25 6.15925 14.0656 6.48744 13.7374C6.81563 13.4092 7 12.9641 7 12.5C7 12.0359 7.18438 11.5908 7.51256 11.2626C7.84075 10.9344 8.28587 10.75 8.75 10.75H33.25C33.7141 10.75 34.1593 10.9344 34.4874 11.2626C34.8156 11.5908 35 12.0359 35 12.5V30C35 30.4641 34.8156 30.9093 34.4874 31.2374C34.1593 31.5656 33.7141 31.75 33.25 31.75H26.25C25.7859 31.75 25.3408 31.9344 25.0126 32.2626C24.6844 32.5907 24.5 33.0359 24.5 33.5C24.5 33.9641 24.6844 34.4093 25.0126 34.7374C25.3408 35.0656 25.7859 35.25 26.25 35.25H33.25C34.6424 35.25 35.9777 34.6969 36.9623 33.7123C37.9469 32.7277 38.5 31.3924 38.5 30V12.5C38.5 11.1076 37.9469 9.77226 36.9623 8.78769C35.9777 7.80312 34.6424 7.25 33.25 7.25ZM5.25 17.75C4.78587 17.75 4.34075 17.9344 4.01256 18.2626C3.68438 18.5908 3.5 19.0359 3.5 19.5C3.5 19.9641 3.68438 20.4092 4.01256 20.7374C4.34075 21.0656 4.78587 21.25 5.25 21.25C8.4989 21.25 11.6147 22.5406 13.9121 24.8379C16.2094 27.1353 17.5 30.2511 17.5 33.5C17.5 33.9641 17.6844 34.4093 18.0126 34.7374C18.3408 35.0656 18.7859 35.25 19.25 35.25C19.7141 35.25 20.1592 35.0656 20.4874 34.7374C20.8156 34.4093 21 33.9641 21 33.5C21 29.3228 19.3406 25.3168 16.3869 22.3631C13.4332 19.4094 9.42716 17.75 5.25 17.75Z" fill="#F8B517"/>
</g>
</svg>
