<svg width="42" height="43" viewBox="0 0 42 43" fill="none" xmlns="http://www.w3.org/2000/svg">
<g id="Weather / scenery">
<path id="Vector" d="M31.5 17.75C32.8844 17.75 34.2378 17.3395 35.389 16.5703C36.5401 15.8011 37.4373 14.7079 37.9671 13.4288C38.4969 12.1497 38.6356 10.7422 38.3655 9.38437C38.0954 8.0265 37.4287 6.77922 36.4497 5.80026C35.4707 4.82129 34.2235 4.1546 32.8656 3.88451C31.5077 3.61441 30.1003 3.75303 28.8212 4.28285C27.5421 4.81266 26.4489 5.70987 25.6797 6.86101C24.9105 8.01216 24.5 9.36553 24.5 10.75C24.5 12.6065 25.2375 14.387 26.5502 15.6998C27.863 17.0125 29.6435 17.75 31.5 17.75ZM31.5 7.25C32.1922 7.25 32.8689 7.45527 33.4445 7.83986C34.02 8.22444 34.4686 8.77107 34.7335 9.41061C34.9985 10.0502 35.0678 10.7539 34.9327 11.4328C34.7977 12.1118 34.4643 12.7354 33.9748 13.2249C33.4854 13.7144 32.8617 14.0477 32.1828 14.1828C31.5039 14.3178 30.8001 14.2485 30.1606 13.9836C29.521 13.7187 28.9744 13.2701 28.5898 12.6945C28.2052 12.1189 28 11.4422 28 10.75C28 9.82175 28.3687 8.93151 29.0251 8.27513C29.6815 7.61875 30.5717 7.25 31.5 7.25ZM29.4875 22.0725C29.3305 21.8193 29.1115 21.6103 28.8512 21.4654C28.5909 21.3204 28.2979 21.2444 28 21.2444C27.702 21.2444 27.409 21.3204 27.1487 21.4654C26.8884 21.6103 26.6694 21.8193 26.5125 22.0725L24.7625 24.925L19.005 15.125C18.85 14.8639 18.6298 14.6475 18.3659 14.4973C18.102 14.347 17.8036 14.268 17.5 14.268C17.1963 14.268 16.8979 14.347 16.634 14.4973C16.3702 14.6475 16.1499 14.8639 15.995 15.125L3.74497 36.125C3.59182 36.3903 3.51097 36.6911 3.5105 36.9974C3.51003 37.3037 3.58997 37.6047 3.74232 37.8705C3.89467 38.1362 4.11409 38.3573 4.37866 38.5116C4.64323 38.666 4.94368 38.7482 5.24997 38.75H36.75C37.0627 38.7506 37.3698 38.6675 37.6394 38.5092C37.9091 38.3509 38.1314 38.1232 38.2833 37.8499C38.4351 37.5765 38.5109 37.2675 38.5029 36.9549C38.4948 36.6424 38.4032 36.3377 38.2375 36.0725L29.4875 22.0725ZM18.2875 35.25H8.29497L17.5 19.5L22.645 28.25L20.4575 31.75L18.2875 35.25ZM22.4 35.25L25.0075 31.1025L26.25 29.2475L28 26.3075L33.6 35.25H22.4Z" fill="#F8B517"/>
</g>
</svg>
