<svg width="43" height="43" viewBox="0 0 43 43" fill="none" xmlns="http://www.w3.org/2000/svg">
<g id="Time / stopwatch">
<path id="Vector" d="M32.7875 15.2825L34.4179 13.7075C34.7553 13.378 34.9448 12.931 34.9448 12.465C34.9448 11.999 34.7553 11.552 34.4179 11.2225C34.0805 10.893 33.623 10.7078 33.1458 10.7078C32.6687 10.7078 32.2111 10.893 31.8738 11.2225L30.2613 12.815C27.7503 10.9177 24.6656 9.88836 21.491 9.88836C18.3165 9.88836 15.2318 10.9177 12.7208 12.815L11.0904 11.205C10.7507 10.8755 10.2908 10.6913 9.812 10.6929C9.3332 10.6945 8.87468 10.8819 8.5373 11.2138C8.19992 11.5456 8.01133 11.9948 8.01301 12.4624C8.01469 12.9301 8.2065 13.378 8.54626 13.7075L10.1946 15.3C8.22916 17.7457 7.16271 20.7659 7.16667 23.875C7.16082 26.107 7.70142 28.308 8.74338 30.2945C9.78534 32.2809 11.2985 33.9953 13.1566 35.2945C15.0146 36.5938 17.1638 37.4402 19.4249 37.7634C21.686 38.0865 23.9934 37.8769 26.1547 37.1521C28.316 36.4272 30.2685 35.2082 31.8494 33.5965C33.4304 31.9849 34.5939 30.0274 35.243 27.8874C35.892 25.7473 36.0078 23.4867 35.5807 21.294C35.1535 19.1013 34.1959 17.0402 32.7875 15.2825ZM21.5 34.375C19.3739 34.375 17.2955 33.7592 15.5276 32.6054C13.7598 31.4517 12.3819 29.8118 11.5683 27.8932C10.7547 25.9746 10.5418 23.8634 10.9566 21.8266C11.3714 19.7898 12.3952 17.9188 13.8986 16.4504C15.402 14.9819 17.3175 13.9819 19.4028 13.5768C21.4881 13.1716 23.6495 13.3795 25.6139 14.1743C27.5782 14.969 29.2571 16.3148 30.4383 18.0415C31.6195 19.7682 32.25 21.7983 32.25 23.875C32.25 26.6598 31.1174 29.3305 29.1014 31.2996C27.0854 33.2688 24.3511 34.375 21.5 34.375ZM17.9167 8.125H25.0833C25.5585 8.125 26.0142 7.94063 26.3502 7.61244C26.6862 7.28425 26.875 6.83913 26.875 6.375C26.875 5.91087 26.6862 5.46575 26.3502 5.13756C26.0142 4.80937 25.5585 4.625 25.0833 4.625H17.9167C17.4415 4.625 16.9858 4.80937 16.6498 5.13756C16.3138 5.46575 16.125 5.91087 16.125 6.375C16.125 6.83913 16.3138 7.28425 16.6498 7.61244C16.9858 7.94063 17.4415 8.125 17.9167 8.125ZM23.2917 18.625C23.2917 18.1609 23.1029 17.7158 22.7669 17.3876C22.4309 17.0594 21.9752 16.875 21.5 16.875C21.0248 16.875 20.5691 17.0594 20.2331 17.3876C19.8971 17.7158 19.7083 18.1609 19.7083 18.625V21.9325C19.3027 22.2869 19.0167 22.7533 18.8883 23.2699C18.76 23.7866 18.7952 24.3291 18.9894 24.8257C19.1836 25.3224 19.5277 25.7497 19.976 26.0512C20.4243 26.3526 20.9557 26.5141 21.5 26.5141C22.0443 26.5141 22.5758 26.3526 23.0241 26.0512C23.4724 25.7497 23.8164 25.3224 24.0106 24.8257C24.2048 24.3291 24.2401 23.7866 24.1117 23.2699C23.9833 22.7533 23.6974 22.2869 23.2917 21.9325V18.625Z" fill="#F8B517"/>
</g>
</svg>
