<svg width="42" height="43" viewBox="0 0 42 43" fill="none" xmlns="http://www.w3.org/2000/svg">
<g id="Users / users">
<path id="Vector" d="M21.525 21.635C22.4588 20.8267 23.2077 19.827 23.721 18.7038C24.2343 17.5805 24.5 16.36 24.5 15.125C24.5 12.8044 23.5781 10.5788 21.9372 8.93782C20.2962 7.29687 18.0706 6.375 15.75 6.375C13.4294 6.375 11.2038 7.29687 9.56282 8.93782C7.92187 10.5788 7 12.8044 7 15.125C6.99999 16.36 7.26565 17.5805 7.77897 18.7038C8.29229 19.827 9.04124 20.8267 9.975 21.635C7.52524 22.7443 5.44681 24.5357 3.98822 26.795C2.52962 29.0542 1.75258 31.6858 1.75 34.375C1.75 34.8391 1.93437 35.2843 2.26256 35.6124C2.59075 35.9406 3.03587 36.125 3.5 36.125C3.96413 36.125 4.40925 35.9406 4.73744 35.6124C5.06563 35.2843 5.25 34.8391 5.25 34.375C5.25 31.5902 6.35625 28.9195 8.32538 26.9504C10.2945 24.9812 12.9652 23.875 15.75 23.875C18.5348 23.875 21.2055 24.9812 23.1746 26.9504C25.1438 28.9195 26.25 31.5902 26.25 34.375C26.25 34.8391 26.4344 35.2843 26.7626 35.6124C27.0908 35.9406 27.5359 36.125 28 36.125C28.4641 36.125 28.9093 35.9406 29.2374 35.6124C29.5656 35.2843 29.75 34.8391 29.75 34.375C29.7474 31.6858 28.9704 29.0542 27.5118 26.795C26.0532 24.5357 23.9748 22.7443 21.525 21.635ZM15.75 20.375C14.7116 20.375 13.6966 20.0671 12.8333 19.4902C11.9699 18.9133 11.297 18.0934 10.8996 17.1341C10.5023 16.1748 10.3983 15.1192 10.6009 14.1008C10.8034 13.0824 11.3035 12.1469 12.0377 11.4127C12.7719 10.6785 13.7074 10.1785 14.7258 9.97588C15.7442 9.77331 16.7998 9.87727 17.7591 10.2746C18.7184 10.672 19.5383 11.3449 20.1152 12.2083C20.6921 13.0716 21 14.0866 21 15.125C21 16.5174 20.4469 17.8527 19.4623 18.8373C18.4777 19.8219 17.1424 20.375 15.75 20.375ZM32.795 20.935C33.9149 19.6738 34.6465 18.1158 34.9017 16.4486C35.1568 14.7813 34.9246 13.0759 34.2331 11.5375C33.5416 9.99912 32.4201 8.69339 31.0038 7.77749C29.5875 6.86159 27.9367 6.37455 26.25 6.375C25.7859 6.375 25.3408 6.55937 25.0126 6.88756C24.6844 7.21575 24.5 7.66087 24.5 8.125C24.5 8.58913 24.6844 9.03425 25.0126 9.36244C25.3408 9.69063 25.7859 9.875 26.25 9.875C27.6424 9.875 28.9777 10.4281 29.9623 11.4127C30.9469 12.3973 31.5 13.7326 31.5 15.125C31.4975 16.0442 31.2538 16.9466 30.7931 17.742C30.3324 18.5374 29.671 19.1979 28.875 19.6575C28.6155 19.8072 28.3988 20.0209 28.2456 20.2783C28.0924 20.5357 28.0079 20.8281 28 21.1275C27.9927 21.4246 28.0611 21.7186 28.1989 21.982C28.3367 22.2453 28.5393 22.4691 28.7875 22.6325L29.47 23.0875L29.6975 23.21C31.8069 24.2105 33.5865 25.793 34.8267 27.771C36.0669 29.7491 36.716 32.0404 36.6975 34.375C36.6975 34.8391 36.8819 35.2843 37.2101 35.6124C37.5383 35.9406 37.9834 36.125 38.4475 36.125C38.9116 36.125 39.3567 35.9406 39.6849 35.6124C40.0131 35.2843 40.1975 34.8391 40.1975 34.375C40.2118 31.6895 39.5392 29.0449 38.2436 26.6926C36.9479 24.3403 35.0724 22.3583 32.795 20.935Z" fill="#F8B517"/>
</g>
</svg>
